<svg xmlns="http://www.w3.org/2000/svg" viewBox="0 0 269.74 117.4"><defs><style>.cls-1{fill:#231f20;}</style></defs><title>CCCo_Logo</title><g id="Layer_2" data-name="Layer 2"><g id="Layer_1-2" data-name="Layer 1"><path d="M64.44,66.57a22.15,22.15,0,0,1-15.9,6.79C34.36,73.36,23.86,61.9,23.86,47s10.5-26.31,24.68-26.31A22.14,22.14,0,0,1,64.42,27.5,48.17,48.17,0,0,1,76.88,9.16C70.16,3.77,61,0,48.54,0,21.27,0,0,19,0,47s21.27,47,48.54,47c12.43,0,21.61-3.82,28.33-9.21A48.38,48.38,0,0,1,64.44,66.57Z"/><path d="M130.84,69.29c-.4-.89-.78-1.8-1.14-2.72a22.15,22.15,0,0,1-15.9,6.79C99.62,73.36,89.12,61.9,89.12,47s10.5-26.31,24.68-26.31a22.13,22.13,0,0,1,15.88,6.77c.36-.92.74-1.83,1.14-2.72A48.24,48.24,0,0,1,142.14,9.16C135.43,3.77,126.27,0,113.8,0,100.64,0,88.88,4.43,80.23,12.16A43.89,43.89,0,0,0,67.6,31.7a51.28,51.28,0,0,0,0,30.66A44.24,44.24,0,0,0,80.22,81.87c8.65,7.75,20.41,12.21,33.58,12.21,12.43,0,21.61-3.82,28.33-9.21A48.62,48.62,0,0,1,130.84,69.29Z"/><path class="cls-1" d="M197.89,59.45c0-18.54,13.5-34.5,35.86-34.5,22.63,0,36,16,36,34.5s-13.36,34.63-36,34.63C211.39,94.08,197.89,78,197.89,59.45Zm50.31,0c0-8.73-5.18-16-14.45-16s-14.18,7.22-14.18,16,5,16.09,14.18,16.09S248.2,68.31,248.2,59.45Z"/><path d="M194.74,66.66a22.18,22.18,0,0,1-15.81,6.7c-14.18,0-24.68-11.46-24.68-26.32s10.5-26.31,24.68-26.31a22.14,22.14,0,0,1,15.88,6.77c.36-.92.74-1.83,1.14-2.72A48.24,48.24,0,0,1,207.27,9.16C200.55,3.77,191.4,0,178.93,0,165.76,0,154,4.43,145.35,12.16A44.06,44.06,0,0,0,132.72,31.7a51.49,51.49,0,0,0,0,30.66,44.17,44.17,0,0,0,12.62,19.51c8.65,7.75,20.41,12.21,33.58,12.21,11.07,0,19.56-3,26-7.51A37.3,37.3,0,0,1,194.74,66.66Z"/><path class="cls-1" d="M11.92,103a4.16,4.16,0,0,0-1.57-2.64,5.22,5.22,0,0,0-3-.78,4.56,4.56,0,0,0-2.25.52,4.41,4.41,0,0,0-1.56,1.41,5.92,5.92,0,0,0-.91,2A9.79,9.79,0,0,0,2.34,106a11.12,11.12,0,0,0,.25,2.38,6.3,6.3,0,0,0,.83,2.08A4.41,4.41,0,0,0,5,111.94a4.85,4.85,0,0,0,2.47.57,4.58,4.58,0,0,0,1.69-.3,4.29,4.29,0,0,0,1.34-.84,4.82,4.82,0,0,0,1-1.26,6.55,6.55,0,0,0,.6-1.59H13.5a9.32,9.32,0,0,1-.71,2,5.66,5.66,0,0,1-1.22,1.65,5.4,5.4,0,0,1-1.83,1.11,7,7,0,0,1-2.53.42,6.16,6.16,0,0,1-2.86-.62,5.39,5.39,0,0,1-1.94-1.66A6.92,6.92,0,0,1,1.31,109,12,12,0,0,1,1,106a10.64,10.64,0,0,1,.51-3.52,6.3,6.3,0,0,1,1.42-2.37A5.41,5.41,0,0,1,5,98.82a8.44,8.44,0,0,1,2.67-.41,7.24,7.24,0,0,1,2.07.29,5,5,0,0,1,1.69.88A4.84,4.84,0,0,1,12.68,101a5.92,5.92,0,0,1,.65,2Z"/><path class="cls-1" d="M20.79,107.21l.81-.12a3.07,3.07,0,0,0,.78-.22.65.65,0,0,0,.37-.48,2.72,2.72,0,0,0,.07-.61,2.08,2.08,0,0,0-.59-1.52,2.78,2.78,0,0,0-2-.59,5.22,5.22,0,0,0-1.15.11,2.47,2.47,0,0,0-.91.38,2.16,2.16,0,0,0-.65.72,3.26,3.26,0,0,0-.33,1.14H16a3.61,3.61,0,0,1,.43-1.58,3.22,3.22,0,0,1,.93-1.07,4,4,0,0,1,1.33-.6,6.43,6.43,0,0,1,1.6-.19,5.83,5.83,0,0,1,1.48.17,3.27,3.27,0,0,1,1.21.54,2.6,2.6,0,0,1,.81,1,3.7,3.7,0,0,1,.29,1.53v5.68c0,.47.08.77.25.9s.51.09,1-.09v.94l-.41.12a1.73,1.73,0,0,1-.54.08,2.35,2.35,0,0,1-.54-.06.94.94,0,0,1-.49-.19,1.28,1.28,0,0,1-.29-.36,1.77,1.77,0,0,1-.15-.46,3.12,3.12,0,0,1,0-.54A5.13,5.13,0,0,1,19,113.58a4.9,4.9,0,0,1-1.32-.19,3.23,3.23,0,0,1-1.11-.56,2.8,2.8,0,0,1-.77-.94,2.86,2.86,0,0,1-.28-1.32q0-2.66,3.64-3.14Zm2,.6a5.89,5.89,0,0,1-1.55.43c-.52.06-1.05.12-1.57.16a4.47,4.47,0,0,0-2.17.62,1.8,1.8,0,0,0-.77,1.59,1.68,1.68,0,0,0,.19.84,1.66,1.66,0,0,0,.5.58,2.15,2.15,0,0,0,.73.35,3.32,3.32,0,0,0,.83.11,5.45,5.45,0,0,0,1.41-.18,3.69,3.69,0,0,0,1.22-.56,2.87,2.87,0,0,0,.86-.94,2.82,2.82,0,0,0,.32-1.36Z"/><path class="cls-1" d="M28.24,113.29H27V102.86h1.21v1.57h0a3.22,3.22,0,0,1,1.33-1.38,4.3,4.3,0,0,1,3.12-.31,2.89,2.89,0,0,1,.86.43,2.36,2.36,0,0,1,.58.64,3.56,3.56,0,0,1,.39.78,3.58,3.58,0,0,1,1.4-1.52,4,4,0,0,1,2-.49,3.44,3.44,0,0,1,1.7.35,2.58,2.58,0,0,1,1,.93,3.44,3.44,0,0,1,.45,1.32,10.8,10.8,0,0,1,.11,1.53v6.58H40v-7.21a3,3,0,0,0-.47-1.77,2.06,2.06,0,0,0-1.76-.64,2.85,2.85,0,0,0-1.28.29,2.93,2.93,0,0,0-1.08.89,2.6,2.6,0,0,0-.33.62,4.38,4.38,0,0,0-.21.73,5.1,5.1,0,0,0-.11.77c0,.25,0,.49,0,.7v5.62H33.52v-7.21a2.91,2.91,0,0,0-.48-1.77,2,2,0,0,0-1.76-.64A2.88,2.88,0,0,0,30,104a2.93,2.93,0,0,0-1.08.89,2.6,2.6,0,0,0-.33.62,4.38,4.38,0,0,0-.21.73,6.8,6.8,0,0,0-.11.77c0,.25,0,.49,0,.7Z"/><path class="cls-1" d="M45.6,101.17a2.3,2.3,0,0,1-.41,1.42,2.12,2.12,0,0,1-1.06.73v-.74a2,2,0,0,0,.46-.45,1.38,1.38,0,0,0,.23-.88v-.69h-.69V98.79H45.6Z"/><path class="cls-1" d="M49.15,110a3,3,0,0,0,1,1.9,3.44,3.44,0,0,0,2.11.56,3.94,3.94,0,0,0,1.15-.16,2.39,2.39,0,0,0,.79-.44,1.85,1.85,0,0,0,.48-.61,1.81,1.81,0,0,0,.16-.73,1.31,1.31,0,0,0-.5-1.13,3.67,3.67,0,0,0-1.24-.59,15.45,15.45,0,0,0-1.61-.36,8.11,8.11,0,0,1-1.61-.45,3.27,3.27,0,0,1-1.24-.87,2.35,2.35,0,0,1-.49-1.59,2.73,2.73,0,0,1,1-2.15,4,4,0,0,1,2.71-.83,4.62,4.62,0,0,1,2.74.75,3.43,3.43,0,0,1,1.28,2.53H54.62a2.23,2.23,0,0,0-.91-1.7,3.4,3.4,0,0,0-1.9-.49,2.73,2.73,0,0,0-1.76.49,1.6,1.6,0,0,0-.6,1.3,1.27,1.27,0,0,0,.49,1.08,4.09,4.09,0,0,0,1.24.6c.5.15,1,.29,1.61.41a7.23,7.23,0,0,1,1.61.52,3.55,3.55,0,0,1,1.24.89,2.31,2.31,0,0,1,.5,1.57,2.59,2.59,0,0,1-.33,1.32,2.79,2.79,0,0,1-.88,1,4.17,4.17,0,0,1-1.34.57,7,7,0,0,1-1.7.2,4.67,4.67,0,0,1-1.65-.28,3.54,3.54,0,0,1-1.21-.75,3.44,3.44,0,0,1-.79-1.13,3.77,3.77,0,0,1-.32-1.39Z"/><path class="cls-1" d="M74.59,103A4.24,4.24,0,0,0,73,100.36a5.27,5.27,0,0,0-3-.78,4.39,4.39,0,0,0-3.81,1.93,6.32,6.32,0,0,0-.91,2A10.28,10.28,0,0,0,65,106a11.12,11.12,0,0,0,.25,2.38,6.31,6.31,0,0,0,.84,2.08,4.38,4.38,0,0,0,1.57,1.48,4.88,4.88,0,0,0,2.47.57,4.63,4.63,0,0,0,1.7-.3,4.4,4.4,0,0,0,1.34-.84,5,5,0,0,0,1-1.26,6.16,6.16,0,0,0,.6-1.59h1.43a8.8,8.8,0,0,1-.71,2,5.66,5.66,0,0,1-1.22,1.65,5.4,5.4,0,0,1-1.83,1.11,7,7,0,0,1-2.53.42,6.19,6.19,0,0,1-2.86-.62,5.39,5.39,0,0,1-1.94-1.66A7.1,7.1,0,0,1,64,109a12,12,0,0,1-.34-2.93,10.64,10.64,0,0,1,.51-3.52,6.3,6.3,0,0,1,1.42-2.37,5.48,5.48,0,0,1,2.14-1.33,8.51,8.51,0,0,1,2.68-.41,7.22,7.22,0,0,1,2.06.29,5,5,0,0,1,1.69.88A4.7,4.7,0,0,1,75.34,101a5.92,5.92,0,0,1,.66,2Z"/><path class="cls-1" d="M82.8,113.58a5.52,5.52,0,0,1-1.88-.37,4.37,4.37,0,0,1-1.53-1,5,5,0,0,1-1-1.72,6.93,6.93,0,0,1-.38-2.39,7.45,7.45,0,0,1,.3-2.15,5.16,5.16,0,0,1,.91-1.74A4.21,4.21,0,0,1,80.69,103a4.82,4.82,0,0,1,2.11-.43,4.93,4.93,0,0,1,2.14.43,4.39,4.39,0,0,1,1.51,1.17,5,5,0,0,1,.9,1.74,7.89,7.89,0,0,1,.29,2.16,7.18,7.18,0,0,1-.34,2.25,5.13,5.13,0,0,1-1,1.73,4.16,4.16,0,0,1-1.53,1.12A4.94,4.94,0,0,1,82.8,113.58Zm3.55-5.5a7.41,7.41,0,0,0-.2-1.74,4.16,4.16,0,0,0-.63-1.4,3,3,0,0,0-1.08-.93,3.55,3.55,0,0,0-1.64-.34,3.29,3.29,0,0,0-1.62.37,3.35,3.35,0,0,0-1.1,1,4.29,4.29,0,0,0-.62,1.41,7,7,0,0,0-.2,1.65,6.72,6.72,0,0,0,.23,1.78,4.25,4.25,0,0,0,.68,1.4,3,3,0,0,0,1.1.91,3.58,3.58,0,0,0,1.53.32,3.3,3.3,0,0,0,1.63-.38,3.05,3.05,0,0,0,1.09-1,4.51,4.51,0,0,0,.63-1.41A6.8,6.8,0,0,0,86.35,108.08Z"/><path class="cls-1" d="M91.06,113.29H89.85V102.86h1.21v1.45a8,8,0,0,1,1.5-1.25,3.49,3.49,0,0,1,1.87-.48,4.79,4.79,0,0,1,1.79.33,3.08,3.08,0,0,1,1.39,1.16,2.65,2.65,0,0,1,.45,1.16,9.81,9.81,0,0,1,.07,1.23v6.83H96.92v-6.81a3.07,3.07,0,0,0-.62-2.11,2.65,2.65,0,0,0-2.07-.7,2.82,2.82,0,0,0-1,.17,3.08,3.08,0,0,0-.84.45,2.94,2.94,0,0,0-.63.64,3.18,3.18,0,0,0-.41.77,4.07,4.07,0,0,0-.22,1c0,.31,0,.64,0,1Z"/><path class="cls-1" d="M101.76,110a3.07,3.07,0,0,0,1,1.9,3.43,3.43,0,0,0,2.1.56,3.89,3.89,0,0,0,1.15-.16,2.29,2.29,0,0,0,.79-.44,1.85,1.85,0,0,0,.48-.61,1.81,1.81,0,0,0,.16-.73,1.31,1.31,0,0,0-.5-1.13,3.61,3.61,0,0,0-1.23-.59,16.27,16.27,0,0,0-1.62-.36,8.11,8.11,0,0,1-1.61-.45,3.35,3.35,0,0,1-1.24-.87,2.4,2.4,0,0,1-.49-1.59,2.73,2.73,0,0,1,1-2.15,4,4,0,0,1,2.71-.83,4.68,4.68,0,0,1,2.75.75,3.5,3.5,0,0,1,1.28,2.53h-1.23a2.27,2.27,0,0,0-.92-1.7,3.4,3.4,0,0,0-1.9-.49,2.73,2.73,0,0,0-1.76.49,1.6,1.6,0,0,0-.6,1.3,1.27,1.27,0,0,0,.49,1.08,4.21,4.21,0,0,0,1.24.6c.5.15,1,.29,1.61.41a7.49,7.49,0,0,1,1.62.52,3.61,3.61,0,0,1,1.23.89,2.31,2.31,0,0,1,.5,1.57,2.69,2.69,0,0,1-.32,1.32,2.82,2.82,0,0,1-.89,1,4.08,4.08,0,0,1-1.34.57,7,7,0,0,1-1.7.2,4.58,4.58,0,0,1-1.64-.28,3.49,3.49,0,0,1-1.22-.75,3.44,3.44,0,0,1-.79-1.13,4,4,0,0,1-.32-1.39Z"/><path class="cls-1" d="M114.79,113.33l-.58.14a2.94,2.94,0,0,1-.81.11,2,2,0,0,1-1.38-.46,2.22,2.22,0,0,1-.47-1.62v-7.63h-1.47v-1h1.47V100h1.21v2.9h1.95v1h-1.95V111c0,.25,0,.47,0,.66a1.08,1.08,0,0,0,.12.47.58.58,0,0,0,.31.26,1.82,1.82,0,0,0,.59.08,4.38,4.38,0,0,0,.5,0l.49-.1Z"/><path class="cls-1" d="M118,113.29h-1.21V102.86H118v2h0a3.54,3.54,0,0,1,1.3-1.74,4,4,0,0,1,2.11-.49v1.31a3.41,3.41,0,0,0-1.69.32,2.74,2.74,0,0,0-1.06.93,3.73,3.73,0,0,0-.55,1.38,8.91,8.91,0,0,0-.15,1.66Z"/><path class="cls-1" d="M130.5,102.86h1.21v10.43H130.5v-1.45c-.16.19-.34.39-.54.59a4.36,4.36,0,0,1-.7.55,3.82,3.82,0,0,1-.91.42,3.76,3.76,0,0,1-1.21.18,4.43,4.43,0,0,1-1.75-.3,2.82,2.82,0,0,1-1.14-.81,3.3,3.3,0,0,1-.63-1.22,5.6,5.6,0,0,1-.19-1.52v-6.87h1.21v6.85a3.05,3.05,0,0,0,.62,2.06,2.61,2.61,0,0,0,2.06.72,3.06,3.06,0,0,0,1.34-.29,2.94,2.94,0,0,0,1-.82,4.18,4.18,0,0,0,.62-1.25,5.32,5.32,0,0,0,.22-1.59Z"/><path class="cls-1" d="M142,106.14a3.49,3.49,0,0,0-1.1-1.82,3,3,0,0,0-2-.65,3.07,3.07,0,0,0-1.59.38,3.2,3.2,0,0,0-1.09,1,4.55,4.55,0,0,0-.62,1.44,6.21,6.21,0,0,0-.2,1.6,6.69,6.69,0,0,0,.19,1.61,4.25,4.25,0,0,0,.61,1.41,3.14,3.14,0,0,0,1.09,1,3.22,3.22,0,0,0,1.61.38,3.1,3.1,0,0,0,2.17-.75,3.41,3.41,0,0,0,1-2h1.29a6.36,6.36,0,0,1-.51,1.58,4.32,4.32,0,0,1-.91,1.23,4,4,0,0,1-1.32.79,5,5,0,0,1-1.75.29,5.06,5.06,0,0,1-2.15-.43,4,4,0,0,1-1.5-1.16,5.06,5.06,0,0,1-.86-1.74,7.87,7.87,0,0,1-.28-2.15,6.91,6.91,0,0,1,.31-2.09,5.37,5.37,0,0,1,.92-1.76,4.36,4.36,0,0,1,1.5-1.22,4.5,4.5,0,0,1,2.06-.45,4.68,4.68,0,0,1,2.93.86,4,4,0,0,1,1.4,2.7Z"/><path class="cls-1" d="M149.5,113.33l-.59.14a2.86,2.86,0,0,1-.8.11,1.91,1.91,0,0,1-1.38-.46,2.18,2.18,0,0,1-.48-1.62v-7.63h-1.47v-1h1.47V100h1.21v2.9h2v1h-2V111c0,.25,0,.47,0,.66a1.08,1.08,0,0,0,.12.47.62.62,0,0,0,.31.26,1.89,1.89,0,0,0,.6.08,4.22,4.22,0,0,0,.49,0l.5-.1Z"/><path class="cls-1" d="M151.55,100.58V98.79h1.33v1.79Zm.06,12.71V102.86h1.21v10.43Z"/><path class="cls-1" d="M160.05,113.58a5.52,5.52,0,0,1-1.88-.37,4.2,4.2,0,0,1-1.53-1,4.83,4.83,0,0,1-1-1.72,6.7,6.7,0,0,1-.38-2.39,7.45,7.45,0,0,1,.3-2.15,5.14,5.14,0,0,1,.9-1.74,4.33,4.33,0,0,1,1.52-1.18,4.79,4.79,0,0,1,2.11-.43,4.93,4.93,0,0,1,2.14.43,4.48,4.48,0,0,1,1.51,1.17,4.78,4.78,0,0,1,.89,1.74,7.52,7.52,0,0,1,.29,2.16,6.9,6.9,0,0,1-.34,2.25,5,5,0,0,1-1,1.73,4.16,4.16,0,0,1-1.53,1.12A4.9,4.9,0,0,1,160.05,113.58Zm3.54-5.5a6.92,6.92,0,0,0-.2-1.74,4.15,4.15,0,0,0-.62-1.4,3.08,3.08,0,0,0-1.09-.93,3.51,3.51,0,0,0-1.63-.34,3.15,3.15,0,0,0-2.72,1.35,4.29,4.29,0,0,0-.62,1.41,6.49,6.49,0,0,0-.21,1.65,6.33,6.33,0,0,0,.24,1.78,4.23,4.23,0,0,0,.67,1.4,3.16,3.16,0,0,0,1.11.91,3.51,3.51,0,0,0,1.53.32,3.29,3.29,0,0,0,1.62-.38,3.09,3.09,0,0,0,1.1-1,4.49,4.49,0,0,0,.62-1.41A6.33,6.33,0,0,0,163.59,108.08Z"/><path class="cls-1" d="M168.31,113.29H167.1V102.86h1.21v1.45a7.43,7.43,0,0,1,1.5-1.25,3.48,3.48,0,0,1,1.86-.48,4.75,4.75,0,0,1,1.79.33,3,3,0,0,1,1.39,1.16,2.55,2.55,0,0,1,.46,1.16,12.15,12.15,0,0,1,.07,1.23v6.83h-1.21v-6.81a3.13,3.13,0,0,0-.62-2.11,2.66,2.66,0,0,0-2.08-.7,2.82,2.82,0,0,0-1,.17,3,3,0,0,0-.83.45,3.23,3.23,0,0,0-.64.64,3.14,3.14,0,0,0-.4.77,4.07,4.07,0,0,0-.22,1c0,.31,0,.64,0,1Z"/><path class="cls-1" d="M194.37,103a4.16,4.16,0,0,0-1.57-2.64,5.22,5.22,0,0,0-3-.78,4.39,4.39,0,0,0-3.82,1.93,6.1,6.1,0,0,0-.9,2,9.79,9.79,0,0,0-.29,2.45,11.12,11.12,0,0,0,.25,2.38,6.09,6.09,0,0,0,.83,2.08,4.46,4.46,0,0,0,1.57,1.48,4.92,4.92,0,0,0,2.48.57,4.58,4.58,0,0,0,1.69-.3,4.29,4.29,0,0,0,1.34-.84,5,5,0,0,0,1-1.26,6.15,6.15,0,0,0,.59-1.59h1.43a8.78,8.78,0,0,1-.7,2,5.85,5.85,0,0,1-1.22,1.65,5.4,5.4,0,0,1-1.83,1.11,7,7,0,0,1-2.53.42,6.13,6.13,0,0,1-2.86-.62,5.39,5.39,0,0,1-1.94-1.66,6.92,6.92,0,0,1-1.1-2.43,12,12,0,0,1-.34-2.93,10.64,10.64,0,0,1,.51-3.52,6.17,6.17,0,0,1,1.42-2.37,5.45,5.45,0,0,1,2.13-1.33,8.55,8.55,0,0,1,2.68-.41,7.24,7.24,0,0,1,2.07.29,5,5,0,0,1,1.69.88,4.84,4.84,0,0,1,1.21,1.44,6.15,6.15,0,0,1,.65,2Z"/><path class="cls-1" d="M202.59,113.58a5.52,5.52,0,0,1-1.88-.37,4.2,4.2,0,0,1-1.53-1,4.83,4.83,0,0,1-1-1.72,6.7,6.7,0,0,1-.38-2.39,7.45,7.45,0,0,1,.3-2.15,5.14,5.14,0,0,1,.9-1.74,4.39,4.39,0,0,1,1.51-1.18,5.47,5.47,0,0,1,4.25,0,4.42,4.42,0,0,1,1.52,1.17,4.78,4.78,0,0,1,.89,1.74,7.52,7.52,0,0,1,.29,2.16,6.9,6.9,0,0,1-.34,2.25,5,5,0,0,1-1,1.73,4.16,4.16,0,0,1-1.53,1.12A4.86,4.86,0,0,1,202.59,113.58Zm3.54-5.5a6.92,6.92,0,0,0-.2-1.74,4.15,4.15,0,0,0-.62-1.4,3.08,3.08,0,0,0-1.09-.93,3.51,3.51,0,0,0-1.63-.34,3.15,3.15,0,0,0-2.72,1.35,4.29,4.29,0,0,0-.62,1.41,6.49,6.49,0,0,0-.21,1.65,6.33,6.33,0,0,0,.24,1.78,4.23,4.23,0,0,0,.67,1.4,3.16,3.16,0,0,0,1.11.91,3.51,3.51,0,0,0,1.53.32,3.29,3.29,0,0,0,1.62-.38,3.09,3.09,0,0,0,1.1-1,4.49,4.49,0,0,0,.62-1.41A6.33,6.33,0,0,0,206.13,108.08Z"/><path class="cls-1" d="M210.69,113.29h-1.21V102.86h1.21v1.57h0a3.22,3.22,0,0,1,1.33-1.38,3.92,3.92,0,0,1,1.89-.47,4,4,0,0,1,1.23.16,3,3,0,0,1,.86.43,2.53,2.53,0,0,1,.58.64,4.73,4.73,0,0,1,.39.78,3.58,3.58,0,0,1,1.4-1.52,4,4,0,0,1,2-.49,3.44,3.44,0,0,1,1.7.35,2.49,2.49,0,0,1,1,.93,3.63,3.63,0,0,1,.46,1.32,10.8,10.8,0,0,1,.11,1.53v6.58h-1.21v-7.21a3,3,0,0,0-.47-1.77,2.08,2.08,0,0,0-1.77-.64,2.81,2.81,0,0,0-1.27.29,2.93,2.93,0,0,0-1.08.89,2,2,0,0,0-.33.62,5.62,5.62,0,0,0-.22.73,6.8,6.8,0,0,0-.11.77c0,.25,0,.49,0,.7v5.62H216v-7.21a2.91,2.91,0,0,0-.47-1.77,2,2,0,0,0-1.76-.64,2.88,2.88,0,0,0-1.28.29,2.93,2.93,0,0,0-1.08.89,2.6,2.6,0,0,0-.33.62,4.38,4.38,0,0,0-.21.73,5.1,5.1,0,0,0-.11.77c0,.25,0,.49,0,.7Z"/><path class="cls-1" d="M227.77,117.4h-1.21V102.86h1.21v1.83h0a3.46,3.46,0,0,1,.67-.9,4.19,4.19,0,0,1,.91-.67,4.91,4.91,0,0,1,1-.4,3.63,3.63,0,0,1,1-.14,5,5,0,0,1,2.16.42,4,4,0,0,1,1.46,1.16,4.69,4.69,0,0,1,.83,1.74,8.3,8.3,0,0,1,.27,2.16,8,8,0,0,1-.28,2.09,5.26,5.26,0,0,1-.86,1.76,4.16,4.16,0,0,1-1.45,1.21,4.48,4.48,0,0,1-2.07.46,4.78,4.78,0,0,1-2.12-.5,3.7,3.7,0,0,1-1.6-1.46Zm0-9.28a5.78,5.78,0,0,0,.24,1.68,4.41,4.41,0,0,0,.69,1.39,3.57,3.57,0,0,0,1.11.94,3,3,0,0,0,1.48.36,3.34,3.34,0,0,0,1.62-.38,3,3,0,0,0,1.14-1,4.43,4.43,0,0,0,.65-1.5,7.33,7.33,0,0,0,.16-1.85,5.21,5.21,0,0,0-.27-1.74,4,4,0,0,0-.76-1.28,3.17,3.17,0,0,0-1.13-.79,3.62,3.62,0,0,0-1.41-.27,3.23,3.23,0,0,0-1.51.34,3.33,3.33,0,0,0-1.11.93,4.39,4.39,0,0,0-.67,1.41A6.31,6.31,0,0,0,227.77,108.12Z"/><path class="cls-1" d="M243.52,107.21l.81-.12a3.07,3.07,0,0,0,.78-.22.63.63,0,0,0,.37-.48,2.72,2.72,0,0,0,.07-.61,2,2,0,0,0-.59-1.52,2.75,2.75,0,0,0-2-.59,5.16,5.16,0,0,0-1.15.11,2.45,2.45,0,0,0-.92.38,2,2,0,0,0-.64.72,3.26,3.26,0,0,0-.34,1.14h-1.22a3.75,3.75,0,0,1,.42-1.58,3.22,3.22,0,0,1,.93-1.07,4.14,4.14,0,0,1,1.33-.6,6.46,6.46,0,0,1,1.61-.19,5.94,5.94,0,0,1,1.48.17,3.42,3.42,0,0,1,1.21.54,2.49,2.49,0,0,1,.8,1,3.54,3.54,0,0,1,.29,1.53v5.68a1.18,1.18,0,0,0,.25.9q.26.18,1-.09v.94l-.41.12a1.68,1.68,0,0,1-.54.08,2.42,2.42,0,0,1-.54-.06.87.87,0,0,1-.48-.19,1.12,1.12,0,0,1-.29-.36,1.48,1.48,0,0,1-.16-.46,4.56,4.56,0,0,1,0-.54,5.13,5.13,0,0,1-3.88,1.74,4.79,4.79,0,0,1-1.32-.19,3.19,3.19,0,0,1-1.12-.56,2.92,2.92,0,0,1-.77-.94,3,3,0,0,1-.28-1.32q0-2.66,3.65-3.14Zm2,.6a5.78,5.78,0,0,1-1.55.43c-.52.06-1,.12-1.57.16a4.39,4.39,0,0,0-2.16.62,1.79,1.79,0,0,0-.78,1.59,1.65,1.65,0,0,0,.7,1.42,2.1,2.1,0,0,0,.72.35,3.4,3.4,0,0,0,.84.11,5.56,5.56,0,0,0,1.41-.18,3.89,3.89,0,0,0,1.22-.56,2.84,2.84,0,0,0,.85-.94,2.71,2.71,0,0,0,.32-1.36Z"/><path class="cls-1" d="M251.13,113.29h-1.21V102.86h1.21v1.45a8,8,0,0,1,1.5-1.25,3.49,3.49,0,0,1,1.87-.48,4.79,4.79,0,0,1,1.79.33,3.08,3.08,0,0,1,1.39,1.16,2.53,2.53,0,0,1,.45,1.16,9.81,9.81,0,0,1,.07,1.23v6.83H257v-6.81a3.08,3.08,0,0,0-.63-2.11,2.65,2.65,0,0,0-2.07-.7,2.82,2.82,0,0,0-1,.17,3.08,3.08,0,0,0-.84.45,2.94,2.94,0,0,0-.63.64,2.83,2.83,0,0,0-.4.77,3.68,3.68,0,0,0-.23,1c0,.31,0,.64,0,1Z"/><path class="cls-1" d="M261,116.11l.5.08a2.92,2.92,0,0,0,.51,0,1.11,1.11,0,0,0,.83-.32,2.7,2.7,0,0,0,.53-.77,6,6,0,0,0,.35-1,4.81,4.81,0,0,1,.32-.83l-4-10.5h1.35l3.34,9,3.34-9h1.31l-3.88,10.29c-.25.66-.48,1.25-.7,1.77a7.55,7.55,0,0,1-.71,1.34,2.79,2.79,0,0,1-.82.85,2,2,0,0,1-1.08.29,4,4,0,0,1-.61,0l-.54-.1Z"/></g></g></svg>