<svg xmlns="http://www.w3.org/2000/svg" viewBox="0 0 320.97 320.97"><defs><style>.cls-1{fill:#090b0c;}.cls-2{fill:#fff;}.cls-3{fill:#3d3f41;}.cls-4{fill:#909090;}.cls-5{fill:#333;}</style></defs><title>fusion</title><g id="Layer_2" data-name="Layer 2"><g id="Layer_1-2" data-name="Layer 1"><polygon class="cls-1" points="22.1 184.11 22.86 184.18 22.85 184.1 22.1 184.11"/><polygon class="cls-1" points="297.88 178.07 298.87 177.78 297.95 177.8 297.95 177.87 297.88 178.07"/><path class="cls-2" d="M0,0V321H321V0ZM298,177.8v.07l-.07.2-9.47,2.74-23.22,3-.92-4.31-.29-.95-1.45-4.65-2.75-4.5-6.8-6-9.36-3.12-6-.46-7.25,1L223,163.74l-5.78,5L212.52,178l-.46,1.8-1.93,7.56-9.54.18-10.65-.09-27.07.46-30.28.18-32.76-.28L99,182.35l-.37-2.46-1.74-6.79-5.32-7.16-5-3.76-7.16-2.94-8.26-.82-7.61,1.38L57,163l-5.51,5.5-4.58,8-2,7.09-.56,2-7.62-.37-9.45-.64-4.38-.39v-.08l-.11-1.18.18-3.95L22.37,174l.74-4.59,1.28-3.85,2-4L28,159.06l1.84-3.21,3-2,4.68-2.11,1.83-1.1,6.33-1.56,6.7-1.29,9-1.65,8.16-1.47,5.69-1,5.23-.55,4.87-.45,6-.46,6.34-.46,12.66-6.89,14.31-7.34,6.7-3.12,3.86-1.92,3.39-1,2.39-.37,3.95-1.38,6.24-1.28,8.8-.74,12.85-.91h10.92l19.09.55,10.46.82,8.72,1.38,8.53,2.84,15.88,5.79,9.45,3.94,5.6,1.93,2.48.55,5.87.27,6-.91,6.88-.55,4.59-.1,2,.74.83,1.1-.37,1.56-.82,1.65,1.83,2.39,1.84,4,.73,4.58v3.58l.37,7.8,3.67,3.67.18,1.66-.82,4.13-.28,2.66.28,1.56,1.19,2.2Z"/><polygon class="cls-3" points="288.41 180.81 265.19 183.84 264.27 179.53 263.98 178.58 260.31 178.66 261.98 183.1 262.35 190.72 279.32 188.24 290.61 185.49 295.2 182.46 297.13 180.26 297.88 178.07 288.41 180.81"/><polygon class="cls-3" points="262.53 173.93 259.78 169.43 252.99 163.47 243.63 160.35 237.66 159.89 230.41 160.9 222.98 163.74 217.2 168.79 212.52 177.97 212.06 179.77 210.13 187.33 200.59 187.51 189.94 187.42 162.87 187.88 132.59 188.06 99.83 187.78 99 182.35 98.63 179.89 96.89 173.1 91.57 165.94 86.52 162.18 79.36 159.25 71.1 158.42 63.49 159.79 56.97 163.01 51.46 168.51 46.88 176.5 44.87 183.59 44.31 185.58 36.69 185.22 27.24 184.57 22.86 184.18 22.93 184.85 23.57 186.04 24.3 187.05 27.61 188.7 34.58 190.72 41.92 191.46 48.62 191.46 48.9 187.42 49.11 183.5 49.26 180.63 52.11 171.54 57.52 165.58 65.6 161.72 75.78 160.81 83.49 163.56 91.84 171.08 95.97 181.64 96.02 182.42 96.43 188.89 97.16 193.84 133.32 193.66 168.74 193.11 191.5 192.92 213.43 192.92 213.53 189.62 214.72 181.64 215.19 179.7 216.19 175.58 221.88 167.87 227.29 164.2 232.06 162.64 238.49 161.63 245.55 162.55 252.34 165.49 257.94 172.37 260.31 178.66 263.98 178.58 262.53 173.93"/><polygon class="cls-3" points="57.7 172.37 54.31 177.51 52.93 183.2 53.58 189.71 55.69 195.49 59.81 200.26 65.5 203.38 71.84 204.21 78.35 204.03 84.59 201.82 89 198.06 92.39 193.01 93.4 186.96 92.3 180.53 88.91 173.19 84.41 168.51 78.54 165.58 72.3 165.21 65.41 166.77 61.1 169.25 57.7 172.37"/><path class="cls-4" d="M87.6,180.69l-2.66-4.86L80.54,172,76,170.5l-4.5-.27-4.59,1.38-3.39,1.92-3.3,3.95-1.84,4.59.09,5.32,1.56,4.5,3.21,4.4,4.87,3.21,5.23.46,6-.82,5.14-3.68L87,191.24l1.29-5.69Zm-10.82-7.43,6,3.76-7,4ZM64,193.17l-2.75-7.52,7.34,1.46Zm-1.1-14.87,6-4.58,1.38,7.89Zm7.8,19,2.94-6.88,4.49,6.33Zm13.49-5.69-6.15-5.23,8.53-2.11Z"/><polygon class="cls-3" points="222.84 172.37 219.45 177.51 218.07 183.2 218.72 189.71 220.83 195.49 224.96 200.26 230.65 203.38 236.98 204.21 243.49 204.03 249.73 201.82 254.14 198.06 257.53 193.01 258.54 186.96 257.44 180.53 254.05 173.19 249.55 168.51 243.68 165.58 237.44 165.21 230.55 166.77 226.24 169.25 222.84 172.37"/><path class="cls-4" d="M252.74,180.69l-2.66-4.86-4.4-3.86-4.59-1.47-4.5-.27L232,171.61l-3.39,1.92-3.3,3.95-1.84,4.59.09,5.32,1.56,4.5,3.21,4.4,4.87,3.21,5.23.46,6.06-.82,5.13-3.68,2.48-4.22,1.29-5.69Zm-10.82-7.43L248,177l-7,4Zm-12.76,19.91-2.75-7.52,7.34,1.46Zm-1.1-14.87,6-4.58,1.38,7.89Zm7.8,19,2.94-6.88,4.49,6.33Zm13.49-5.69-6.15-5.23,8.53-2.11Z"/><polygon class="cls-5" points="105.2 148.49 112.14 141.55 129.62 131.75 144.25 125.58 158.87 122.71 171.68 121.96 165.2 143.96 105.2 148.49"/><polygon class="cls-5" points="178.76 121.96 199.72 122.86 210.57 125.12 221.88 130.85 228.21 135.37 229.41 137.78 228.51 142.76 175.45 143.21 178.76 121.96"/></g></g></svg>