<svg xmlns="http://www.w3.org/2000/svg" viewBox="0 0 322.49 322.49"><defs><style>.cls-1{fill:#fff;}.cls-2{fill:#323232;}.cls-3{fill:#909090;}.cls-4{fill:#333;}</style></defs><title>jetta</title><g id="Layer_2" data-name="Layer 2"><g id="Layer_1-2" data-name="Layer 1"><path class="cls-1" d="M0,0V322.49H322.49V0ZM292.66,178.57l-.14,2-7.17,2.24-7.46,1.94-18.22,2.36-.2-3.38-1.23-4.91L257,173.25l-3.47-4.51-6.14-4.5-7.78-2.86-9.51-.11-8,1.95L216.19,168l-4,5.52-2.35,6.35-.92,8.69-7.68.1-35.19.52-29.88.1-33.86-.62-.92-3.58-.41-4.5-.72-3.58-1.63-3L96.39,170l-2.87-3.27-4.71-3.07-4.09-2-6.75-1-6.45.82-5.42,1.43-6,3-4.6,5.52L52.9,177v7.57L52.09,188H44.16l-11.64-2-.16-2.27-.17-3.18-.4-1.05-1-2.44-.33-3.34.66-2.19,1.62-1.3,2.2-1.47v-2.19l1.54-3.74,2.28-3.17,1.22-.82,2.52-1.46,6.67-2.68,8.7-2.44,10.33-2.12,10.89-1.79,11.55-1.87,7.24-.81,2.76-.81,5.86-3.34,6.26-3.66,7.48-3.82,8.7-4.31,10.17-4.31,8.94-2.6,10-1.06,12.28-1,15.29-.41,15.21.57,11.63.89,9.18,1.87,12.2,3.91L245.57,132l16.51,7.48,3.42.57,7.15.89,11.71,2,1.14,2,1.71,4.55.08,2.77-.25,6.1.25,3.33,5.12,5,.16,2.68-.08,4.31.57,2.77Z"/><polygon class="cls-2" points="285.36 182.76 277.89 184.7 259.68 187.06 259.47 183.68 258.24 178.77 257.01 173.25 253.54 168.74 247.4 164.24 239.62 161.38 230.11 161.28 222.13 163.22 216.19 168.03 212.2 173.55 209.85 179.9 208.93 188.59 201.25 188.69 166.06 189.21 136.19 189.31 102.32 188.69 101.4 185.11 100.99 180.61 100.27 177.03 98.64 174.06 96.39 169.97 93.52 166.7 88.81 163.63 84.72 161.58 77.97 160.56 71.52 161.38 66.1 162.81 60.06 165.78 55.46 171.3 52.9 177.03 52.9 184.6 52.09 187.97 44.16 187.97 32.52 185.97 31.14 186.87 29.43 187.52 29.43 188.41 35.2 190.12 41.3 190.77 47.48 191.18 54.23 191.42 55.86 191.18 55.04 185 55.69 179.79 57.08 175.32 60.33 170.44 64.56 166.38 69.76 164.1 75.37 162.96 81.06 163.37 86.03 164.83 89.93 166.94 93.67 170.69 96.52 175 98.06 179.22 98.71 183.78 99.2 187.76 99.12 190.2 99.12 192.24 116.19 192.24 162.22 192.32 189.87 192.15 212.39 191.99 212.72 184.27 214.02 177.03 217.52 171.42 222.97 166.54 230.2 163.85 237.77 163.61 245.65 166.05 249.88 169.22 254.03 174.91 255.74 179.87 256.31 186.3 255.74 190.37 268.91 188.49 280.13 186.79 285.74 185 290.54 182.48 292.49 180.85 292.52 180.52 285.36 182.76"/><polygon class="cls-2" points="68.08 167.34 62.87 171.48 59.7 176.61 58.32 181.49 58.81 189.13 62.38 195.47 68.08 200.11 73.61 202.14 81.33 201.65 87.51 199.46 93.45 193.93 96.05 185.96 95.07 178.97 90.44 171.4 84.5 167.17 77.18 165.38 71.82 165.95 68.08 167.34"/><path class="cls-3" d="M89.93,181.42l-2.28-5-4.31-4.31-4.15-1.22-5,.08-5.44,2.52-3.74,4.31L63.5,182l.81,7.48,4.23,4.8,6.26,3.25,6.67-.73,4.07-2.52,2.92-3.66,1.63-4.47ZM81.8,172.8l4.39,3.09L79.85,180Zm-2-.57-2,9.76H75.94l-2-10ZM72,173l2,7.24L67.4,176Zm-5.53,4.88,8.7,4.88-.57,1.71-10.33-1.14Zm-1.87,7.56,7,.17-5.37,5.2Zm3,6.83,7.15-6.91,1.55,1.22L72,195.81Zm6.26,4,2.93-6.75,3.09,6.75Zm7.56-.81-4.06-8.95,1.3-.89,7.8,6.66Zm5.78-4.72-5.78-5,7.4-.41ZM79,184.35l-.49-1.71,8.87-4.8,1.79,5.37Z"/><polygon class="cls-2" points="226.09 167.34 220.88 171.48 217.71 176.61 216.33 181.49 216.82 189.13 220.4 195.47 226.09 200.11 231.62 202.14 239.34 201.65 245.52 199.46 251.46 193.93 254.06 185.96 253.09 178.97 248.45 171.4 242.51 167.17 235.2 165.38 229.83 165.95 226.09 167.34"/><path class="cls-3" d="M247.94,181.42l-2.28-5-4.31-4.31-4.14-1.22-5,.08-5.45,2.52-3.74,4.31L221.51,182l.82,7.48,4.22,4.8,6.27,3.25,6.66-.73,4.07-2.52,2.93-3.66,1.62-4.47Zm-8.13-8.62,4.39,3.09L237.86,180Zm-2-.57-2,9.76H234L232,172Zm-7.73.73,2,7.24L225.42,176Zm-5.53,4.88,8.7,4.88-.57,1.71-10.32-1.14Zm-1.87,7.56,7,.17-5.36,5.2Zm3,6.83,7.16-6.91,1.54,1.22-4.31,9.27Zm6.26,4,2.93-6.75,3.09,6.75Zm7.56-.81-4.06-8.95,1.3-.89,7.81,6.66Zm5.78-4.72-5.78-5,7.4-.41ZM237,184.35l-.48-1.71,8.86-4.8,1.79,5.37Z"/><polygon class="cls-4" points="105.61 149.27 107.44 146.25 111.11 143.32 117.52 138.65 124.39 135.07 133.1 130.76 140.06 127.92 147.39 125.73 155.54 124.72 162.32 124.26 172.95 123.89 167.64 145.7 144.46 147.07 122.19 148.36 105.61 149.27"/><polygon class="cls-4" points="176.34 123.62 196.31 124.17 206.03 125.27 213.17 126.46 219.95 129.3 228.84 134.06 233.33 137.54 233.7 139.84 232.6 142.68 231.31 144.51 173.96 145.79 176.34 123.62"/></g></g></svg>