<svg xmlns="http://www.w3.org/2000/svg" viewBox="0 0 235.16 235.16"><defs><style>.cls-1{fill:#fff;}.cls-2{fill:#333;}.cls-3{fill:#909090;}</style></defs><title>pilot</title><g id="Layer_2" data-name="Layer 2"><g id="Layer_1-2" data-name="Layer 1"><path class="cls-1" d="M0,0V235.16H235.16V0ZM215.64,130.24c-.86,5.72-.57,5.72-6,5.72,0,0-2-16-11.14-17.14s-18.27-2.57-25.41,3.71-8.57,13.14-8.57,13.14l-80.82-.29s-2.28-8.28-7.14-12S64,118.82,59.71,119.11s-11.14,0-15.71,4.57-5.14,8.56-5.14,8.56l-15.13-2s-5.43.29-4.57-4.85,4-4.57,1.71-20.28c0,0,1.43-4.85,3.14-4.85S34.29,86.84,34.29,86.84L32,83.12s35.7-4.57,70.82-4.28,40.56,3.71,45.7,6.28,20,15.14,28.84,15.14,30.56,4.57,32.56,7.71,2.28,7.71,4.28,10.85S216.5,124.53,215.64,130.24Z"/><path class="cls-2" d="M209.64,136s-2-16-11.14-17.14-18.27-2.57-25.41,3.71-8.57,13.14-8.57,13.14l-80.82-.29s-2.28-8.28-7.14-12S64,118.82,59.71,119.11s-11.14,0-15.71,4.57-5.14,8.56-5.14,8.56l-15.13-2a5.74,5.74,0,0,1-3.39-1l-.17.13s-1.72,13.3,22.85,13c0,0,0-13.2,10.52-16.83s18.36.29,21.9,3.25,6.22,10.23,6.22,10.23l51.06.48c21,.19,34.14-.19,34.14-.19s3.44-13.29,11.85-16,16-.76,19.42,1.43,8.32,7.37,7.74,17.41c0,0,9.09,1.24,9.47-7.94a9.17,9.17,0,0,0-.08-1.56C214.71,136,214.13,136,209.64,136Z"/><path class="cls-2" d="M77.24,82.6C71.11,83.27,49.43,86,49.43,86L35.72,97.12S52,100.28,71.57,101.9Z"/><path class="cls-2" d="M133.11,83.41c-3.83-.15-8.91-.31-14.46-.46l4.26,20.24c10.27.23,17.31.49,20.48.49,5.71,0,20.84,1.43,25.13-.85C168.52,102.83,148.24,84,133.11,83.41Z"/><path class="cls-2" d="M112.25,82.78c-13.43-.33-27.76-.55-33.1-.32l-5.72,19.59c6.14.47,12.55.78,18.84.78,8,0,15.16.07,21.5.18Z"/><circle class="cls-2" cx="61.65" cy="140.63" r="15.71"/><path class="cls-2" d="M61.58,140.51l-5.64-9.29a10.43,10.43,0,0,0-1.23.86l6.86,8.45Z"/><polygon points="61.57 140.62 61.57 140.62 61.58 140.61 61.58 140.61 61.57 140.62"/><path class="cls-2" d="M52.85,134a11,11,0,0,0-2.17,5.74l10.84.77Z"/><path class="cls-2" d="M66.2,130.6a11,11,0,0,0-7.81-.5l3.22,10.41Z"/><polygon points="61.63 140.56 61.63 140.56 61.63 140.56 61.63 140.56"/><polygon points="61.55 140.56 61.54 140.56 61.56 140.57 61.56 140.57 61.55 140.56"/><polygon points="61.62 140.6 61.62 140.6 61.63 140.61 61.62 140.6 61.62 140.6"/><path class="cls-2" d="M61.66,140.54l8-7.51a12.11,12.11,0,0,0-1.12-1l-6.87,8.53Z"/><polygon points="61.63 140.6 61.65 140.62 61.65 140.62 61.63 140.59 61.63 140.59 61.63 140.6"/><path class="cls-2" d="M72.59,141.9a10.69,10.69,0,0,0,.08-1.27,10.94,10.94,0,0,0-1.44-5.42l-9.56,5.36Z"/><polygon points="61.59 140.53 61.59 140.52 61.58 140.54 61.59 140.54 61.59 140.53"/><path class="cls-2" d="M61.57,140.63l-1.69,10.86a10.73,10.73,0,0,0,1.51.14l.2-11Z"/><polygon points="61.65 140.55 61.65 140.54 61.63 140.55 61.63 140.56 61.65 140.55"/><path class="cls-2" d="M61.54,140.57,50.8,142.45a10.45,10.45,0,0,0,.34,1.47l10.41-3.34Z"/><path class="cls-2" d="M64.1,151.36a11,11,0,0,0,5.6-3.23l-8.08-7.48Z"/><path class="cls-2" d="M52.27,146.37a11,11,0,0,0,5,4.36l4.27-10.11Z"/><path class="cls-2" d="M61.64,140.6v0l9.65,5.31a11.52,11.52,0,0,0,.64-1.38Z"/><polygon class="cls-3" points="61.65 140.62 61.65 140.62 61.64 140.6 61.63 140.59 61.65 140.62"/><polygon class="cls-3" points="61.59 140.53 61.59 140.5 61.59 140.52 61.59 140.53"/><path class="cls-3" d="M61.59,140.5v0h0v0L58.39,130.1a11.32,11.32,0,0,0-2.45,1.12l5.64,9.29Z"/><polygon class="cls-3" points="61.63 140.56 61.63 140.55 61.63 140.55 61.62 140.56 61.63 140.56"/><polygon class="cls-3" points="61.63 140.57 61.63 140.57 61.63 140.56 61.63 140.56 61.63 140.57"/><polygon class="cls-3" points="61.63 140.6 61.62 140.6 61.63 140.61 61.65 140.62 61.63 140.6"/><polygon class="cls-3" points="61.59 140.56 61.59 140.56 61.58 140.56 61.58 140.56 61.59 140.56"/><path class="cls-3" d="M61.57,140.54h0l-6.86-8.45A11,11,0,0,0,52.85,134l8.67,6.51Z"/><path class="cls-3" d="M61.52,140.55h0l0,0-10.84-.77c0,.29,0,.57,0,.87a10.9,10.9,0,0,0,.16,1.82l10.74-1.88Z"/><polygon class="cls-3" points="61.55 140.56 61.52 140.55 61.54 140.56 61.55 140.56"/><polygon class="cls-3" points="61.59 140.54 61.58 140.54 61.58 140.54 61.59 140.55 61.59 140.54"/><polygon class="cls-3" points="61.63 140.55 61.65 140.54 61.66 140.54 61.63 140.54 61.63 140.55 61.63 140.55"/><polygon class="cls-3" points="61.6 140.54 61.6 140.54 61.6 140.54 61.6 140.54"/><polygon class="cls-3" points="61.63 140.55 61.63 140.55 61.63 140.55 61.63 140.55"/><polygon class="cls-3" points="61.57 140.54 61.52 140.53 61.56 140.56 61.56 140.56 61.57 140.54"/><polygon class="cls-3" points="61.59 140.55 61.58 140.54 61.58 140.56 61.59 140.56 61.59 140.55"/><polygon class="cls-3" points="61.63 140.56 61.63 140.56 61.63 140.56 61.65 140.55 61.63 140.56"/><path class="cls-3" d="M61.55,140.58h0l-10.41,3.34a10.7,10.7,0,0,0,1.13,2.45l9.27-5.75Z"/><polygon class="cls-3" points="61.58 140.58 61.58 140.58 61.58 140.57 61.58 140.58 61.58 140.59 61.58 140.58"/><polygon class="cls-3" points="61.61 140.56 61.63 140.57 61.63 140.56 61.63 140.56 61.62 140.56 61.61 140.56"/><polygon class="cls-3" points="61.58 140.58 61.58 140.58 61.58 140.58 61.58 140.58"/><polygon class="cls-3" points="61.58 140.54 61.59 140.52 61.58 140.51 61.57 140.53 61.58 140.54 61.58 140.54"/><polygon class="cls-3" points="61.56 140.57 61.56 140.57 61.56 140.58 61.57 140.57 61.56 140.57"/><path class="cls-3" d="M61.55,140.64l0,0,0,0-4.27,10.11a10.9,10.9,0,0,0,2.61.76l1.69-10.86Z"/><polygon class="cls-3" points="61.57 140.62 61.55 140.64 61.57 140.62 61.57 140.62"/><polygon class="cls-3" points="61.59 140.5 61.58 140.51 61.59 140.52 61.59 140.5"/><polygon class="cls-3" points="61.57 140.53 61.57 140.54 61.58 140.54 61.57 140.53"/><polygon class="cls-3" points="61.58 140.56 61.57 140.56 61.58 140.56 61.58 140.56"/><polygon class="cls-3" points="61.58 140.54 61.58 140.54 61.58 140.54 61.58 140.54"/><polygon class="cls-3" points="61.57 140.56 61.58 140.56 61.58 140.54 61.58 140.54 61.57 140.54 61.56 140.56 61.57 140.56"/><polygon class="cls-3" points="61.55 140.58 61.54 140.62 61.57 140.6 61.57 140.6 61.55 140.58"/><polygon class="cls-3" points="61.57 140.57 61.56 140.58 61.58 140.58 61.58 140.57 61.57 140.57"/><path class="cls-3" d="M61.59,140.62h0l-.2,11h.26a11,11,0,0,0,2.45-.28l-2.48-10.71Z"/><polygon class="cls-3" points="61.62 140.6 61.62 140.6 61.62 140.6 61.62 140.6"/><polygon class="cls-3" points="61.59 140.56 61.59 140.56 61.59 140.56 61.59 140.56"/><polygon class="cls-3" points="61.6 140.59 61.59 140.59 61.6 140.6 61.6 140.59 61.6 140.59"/><polygon class="cls-3" points="61.6 140.54 61.59 140.53 61.59 140.54 61.6 140.54"/><polygon class="cls-3" points="61.6 140.54 61.6 140.54 61.59 140.5 61.59 140.53 61.6 140.54"/><polygon class="cls-3" points="61.59 140.56 61.59 140.56 61.59 140.56 61.59 140.56 61.59 140.56 61.59 140.56"/><polygon class="cls-3" points="61.6 140.58 61.6 140.59 61.6 140.59 61.6 140.59 61.61 140.59 61.6 140.58"/><polygon class="cls-3" points="61.59 140.55 61.59 140.56 61.59 140.56 61.6 140.54 61.6 140.54 61.59 140.54 61.59 140.55"/><polygon class="cls-3" points="61.6 140.54 61.6 140.54 61.6 140.54 61.6 140.54 61.6 140.54"/><polygon class="cls-3" points="61.59 140.55 61.59 140.56 61.59 140.56 61.59 140.55"/><polygon class="cls-3" points="61.6 140.59 61.6 140.58 61.6 140.58 61.6 140.59"/><polygon class="cls-3" points="61.65 140.62 61.65 140.63 61.65 140.62 61.65 140.62"/><polygon class="cls-3" points="61.58 140.61 61.58 140.61 61.59 140.61 61.59 140.6 61.58 140.61"/><path class="cls-3" d="M61.65,140.63l0,0h0v.05l8.08,7.48a10.87,10.87,0,0,0,1.6-2.2l-9.65-5.31Z"/><polygon class="cls-3" points="61.56 140.57 61.54 140.56 61.53 140.56 61.55 140.58 61.55 140.58 61.56 140.57"/><polygon class="cls-3" points="61.65 140.63 61.65 140.62 61.65 140.62 61.65 140.63"/><polygon class="cls-3" points="61.63 140.61 61.65 140.63 61.65 140.62 61.63 140.61"/><polygon class="cls-3" points="61.52 140.55 61.53 140.56 61.54 140.56 61.52 140.55"/><polygon class="cls-3" points="61.58 140.58 61.58 140.59 61.58 140.59 61.58 140.58"/><polygon class="cls-3" points="61.55 140.58 61.55 140.58 61.55 140.58 61.55 140.58"/><polygon class="cls-3" points="61.55 140.58 61.56 140.58 61.56 140.57 61.55 140.58"/><polygon class="cls-3" points="61.58 140.59 61.58 140.58 61.56 140.58 61.55 140.58 61.55 140.58 61.57 140.6 61.58 140.59"/><polygon class="cls-3" points="61.59 140.62 61.63 140.65 61.62 140.6 61.62 140.6 61.59 140.62"/><polygon class="cls-3" points="61.59 140.6 61.59 140.61 61.6 140.6 61.59 140.59 61.59 140.6"/><polygon class="cls-3" points="61.56 140.56 61.56 140.56 61.55 140.56 61.56 140.57 61.56 140.56"/><polygon class="cls-3" points="61.61 140.58 61.61 140.58 61.62 140.58 61.62 140.57 61.61 140.58"/><polygon class="cls-3" points="61.63 140.59 61.63 140.59 61.63 140.59 61.63 140.59"/><path class="cls-3" d="M61.64,140.59h0l10.3,4a11.05,11.05,0,0,0,.65-2.65l-10.92-1.33Z"/><polygon class="cls-3" points="61.62 140.58 61.63 140.57 61.63 140.57 61.62 140.57 61.62 140.58"/><polygon class="cls-3" points="61.63 140.59 61.63 140.59 61.64 140.6 61.64 140.59 61.63 140.59"/><polygon class="cls-3" points="61.61 140.58 61.61 140.59 61.61 140.58 61.61 140.58 61.61 140.58"/><polygon class="cls-3" points="61.59 140.56 61.59 140.56 61.58 140.56 61.58 140.57 61.59 140.57 61.59 140.56"/><polygon class="cls-3" points="61.56 140.56 61.56 140.56 61.56 140.56 61.56 140.56"/><polygon class="cls-3" points="61.56 140.56 61.56 140.56 61.52 140.55 61.55 140.56 61.56 140.56"/><polygon class="cls-3" points="61.56 140.56 61.56 140.56 61.56 140.56 61.56 140.56 61.56 140.56"/><polygon class="cls-3" points="61.58 140.57 61.58 140.58 61.58 140.57 61.58 140.57"/><polygon class="cls-3" points="61.61 140.57 61.61 140.58 61.62 140.57 61.61 140.56 61.61 140.57 61.61 140.57"/><polygon class="cls-3" points="61.61 140.56 61.62 140.57 61.63 140.57 61.61 140.56 61.61 140.56"/><polygon class="cls-3" points="61.59 140.57 61.58 140.57 61.58 140.57 61.58 140.58 61.58 140.58 61.59 140.57"/><polygon class="cls-3" points="61.61 140.58 61.61 140.58 61.61 140.57 61.61 140.58"/><polygon class="cls-3" points="61.56 140.56 61.56 140.57 61.57 140.57 61.58 140.57 61.56 140.56"/><polygon class="cls-3" points="61.58 140.57 61.58 140.57 61.58 140.56 61.57 140.56 61.56 140.56 61.56 140.56 61.58 140.57"/><polygon class="cls-3" points="61.56 140.56 61.56 140.56 61.57 140.56 61.56 140.56"/><polygon class="cls-3" points="61.58 140.57 61.57 140.57 61.58 140.57 61.58 140.57 61.58 140.57"/><polygon class="cls-3" points="61.58 140.57 61.58 140.57 61.58 140.57 61.58 140.57"/><polygon class="cls-3" points="61.61 140.59 61.61 140.59 61.61 140.58 61.6 140.58 61.61 140.59"/><polygon class="cls-3" points="61.59 140.56 61.59 140.56 61.59 140.56 61.59 140.56"/><polygon class="cls-3" points="61.61 140.57 61.61 140.57 61.61 140.57 61.61 140.57"/><polygon class="cls-3" points="61.61 140.57 61.6 140.58 61.6 140.58 61.61 140.58 61.61 140.57 61.61 140.57"/><polygon class="cls-3" points="61.65 140.55 61.67 140.54 61.65 140.54 61.65 140.55"/><path class="cls-3" d="M61.67,140.54l0,0h0l9.56-5.36A11.07,11.07,0,0,0,69.62,133l-8,7.51Z"/><polygon class="cls-3" points="61.62 140.59 61.63 140.6 61.63 140.59 61.62 140.59"/><polygon class="cls-3" points="61.62 140.6 61.62 140.6 61.61 140.6 61.62 140.6"/><polygon class="cls-3" points="61.58 140.61 61.57 140.62 61.57 140.63 61.59 140.62 61.59 140.61 61.58 140.61"/><polygon class="cls-3" points="61.63 140.57 61.63 140.56 61.63 140.57 61.63 140.57"/><polygon class="cls-3" points="61.61 140.59 61.61 140.6 61.62 140.6 61.63 140.6 61.62 140.59 61.61 140.59"/><polygon class="cls-3" points="61.67 140.54 61.66 140.54 61.65 140.54 61.67 140.54"/><polygon class="cls-3" points="61.63 140.56 61.67 140.54 61.65 140.55 61.63 140.56"/><polygon class="cls-3" points="61.55 140.64 61.57 140.63 61.57 140.62 61.55 140.64"/><polygon class="cls-3" points="61.59 140.62 61.59 140.62 61.59 140.61 61.59 140.62"/><polygon class="cls-3" points="61.6 140.59 61.6 140.6 61.62 140.6 61.62 140.6 61.61 140.6 61.6 140.59"/><polygon class="cls-3" points="61.6 140.59 61.61 140.6 61.61 140.59 61.61 140.59 61.6 140.59"/><polygon class="cls-3" points="61.59 140.61 61.59 140.61 61.58 140.61 61.59 140.61"/><polygon class="cls-3" points="61.6 140.6 61.59 140.61 61.59 140.61 61.59 140.62 61.62 140.6 61.6 140.6"/><polygon class="cls-3" points="61.67 140.57 61.63 140.57 61.64 140.59 61.67 140.57"/><polygon class="cls-3" points="61.61 140.58 61.62 140.59 61.63 140.59 61.63 140.59 61.62 140.58 61.61 140.58"/><polygon class="cls-3" points="61.62 140.58 61.63 140.59 61.64 140.59 61.63 140.57 61.63 140.57 61.62 140.58"/><polygon class="cls-3" points="61.61 140.59 61.62 140.59 61.61 140.58 61.61 140.59 61.61 140.59"/><polygon class="cls-3" points="61.61 140.59 61.61 140.59 61.61 140.59 61.61 140.59"/><path class="cls-3" d="M61.62,140.54h0L68.5,132a11,11,0,0,0-2.3-1.41l-4.59,9.91Z"/><polygon class="cls-3" points="61.57 140.6 61.57 140.62 61.58 140.61 61.57 140.6"/><polygon class="cls-3" points="61.6 140.56 61.61 140.56 61.61 140.55 61.6 140.55 61.6 140.56"/><polygon class="cls-3" points="61.62 140.56 61.63 140.55 61.61 140.55 61.61 140.56 61.62 140.56"/><polygon class="cls-3" points="61.61 140.51 61.6 140.54 61.62 140.54 61.61 140.51"/><polygon class="cls-3" points="61.61 140.55 61.6 140.55 61.6 140.55 61.61 140.55"/><polygon class="cls-3" points="61.63 140.54 61.62 140.54 61.63 140.55 61.63 140.54"/><polygon class="cls-3" points="61.6 140.55 61.61 140.55 61.63 140.55 61.63 140.55 61.62 140.54 61.6 140.54 61.6 140.54 61.6 140.55"/><polygon class="cls-3" points="61.61 140.56 61.61 140.56 61.6 140.56 61.6 140.56 61.61 140.56"/><polygon class="cls-3" points="61.58 140.58 61.58 140.59 61.59 140.59 61.59 140.58 61.58 140.58"/><polygon class="cls-3" points="61.61 140.56 61.62 140.56 61.61 140.56 61.61 140.56 61.61 140.56"/><polygon class="cls-3" points="61.59 140.58 61.58 140.58 61.58 140.58 61.59 140.58 61.59 140.58"/><polygon class="cls-3" points="61.57 140.6 61.57 140.6 61.57 140.6 61.55 140.64 61.57 140.62 61.57 140.6"/><polygon class="cls-3" points="61.57 140.6 61.57 140.6 61.57 140.6 61.57 140.6"/><polygon class="cls-3" points="61.59 140.59 61.59 140.59 61.6 140.59 61.6 140.59 61.59 140.59"/><polygon class="cls-3" points="61.6 140.56 61.6 140.56 61.6 140.56 61.6 140.55 61.59 140.56 61.59 140.56 61.6 140.56"/><polygon class="cls-3" points="61.59 140.56 61.59 140.56 61.6 140.56 61.59 140.56"/><polygon class="cls-3" points="61.6 140.59 61.6 140.59 61.6 140.59 61.6 140.59"/><polygon class="cls-3" points="61.6 140.55 61.6 140.55 61.6 140.54 61.59 140.56 61.6 140.55"/><polygon class="cls-3" points="61.6 140.54 61.6 140.54 61.6 140.55 61.6 140.54"/><polygon class="cls-3" points="61.6 140.56 61.6 140.56 61.6 140.56 61.6 140.56"/><polygon class="cls-3" points="61.6 140.59 61.59 140.58 61.59 140.59 61.59 140.59 61.6 140.59"/><polygon class="cls-3" points="61.59 140.58 61.59 140.58 61.6 140.59 61.6 140.59 61.6 140.58 61.59 140.58"/><polygon class="cls-3" points="61.59 140.6 61.59 140.59 61.57 140.6 61.57 140.6 61.58 140.61 61.59 140.6"/><polygon class="cls-3" points="61.59 140.59 61.59 140.59 61.58 140.59 61.58 140.59 61.57 140.6 61.59 140.59"/><polygon class="cls-3" points="61.57 140.6 61.57 140.6 61.57 140.6 61.57 140.6"/><polygon class="cls-3" points="61.58 140.59 61.57 140.6 61.57 140.6 61.57 140.6 61.58 140.59"/><polygon class="cls-3" points="61.59 140.59 61.59 140.6 61.59 140.59 61.59 140.59 61.59 140.59"/><polygon class="cls-3" points="61.59 140.59 61.59 140.59 61.59 140.59 61.59 140.59"/><polygon class="cls-3" points="61.59 140.56 61.59 140.57 61.59 140.57 61.59 140.56"/><polygon class="cls-3" points="61.6 140.56 61.61 140.57 61.61 140.56 61.61 140.56 61.6 140.56"/><polygon class="cls-3" points="61.61 140.56 61.61 140.56 61.61 140.56 61.61 140.56"/><polygon class="cls-3" points="61.59 140.57 61.58 140.58 61.59 140.58 61.59 140.57 61.59 140.57"/><polygon class="cls-3" points="61.6 140.56 61.6 140.56 61.6 140.56 61.6 140.56"/><polygon class="cls-3" points="61.6 140.56 61.6 140.56 61.59 140.56 61.59 140.56 61.59 140.57 61.6 140.56"/><polygon class="cls-3" points="61.61 140.57 61.61 140.57 61.6 140.56 61.6 140.56 61.6 140.56 61.61 140.57"/><polygon class="cls-3" points="61.61 140.57 61.6 140.56 61.59 140.57 61.59 140.58 61.6 140.58 61.61 140.57"/><circle class="cls-3" cx="61.65" cy="140.63" r="2.67"/><circle class="cls-2" cx="186.94" cy="138.48" r="15.71"/><path class="cls-2" d="M186.88,138.37l-5.64-9.3a13.65,13.65,0,0,0-1.24.86l6.87,8.46Z"/><polygon points="186.87 138.47 186.86 138.48 186.88 138.47 186.87 138.46 186.87 138.47"/><path class="cls-2" d="M178.15,131.88a10.88,10.88,0,0,0-2.18,5.74l10.85.77Z"/><path class="cls-2" d="M191.49,128.46a11,11,0,0,0-7.81-.5l3.23,10.4Z"/><polygon points="186.93 138.42 186.93 138.42 186.93 138.42 186.93 138.42"/><polygon points="186.84 138.42 186.84 138.42 186.85 138.43 186.85 138.42 186.84 138.42"/><polygon points="186.91 138.46 186.91 138.46 186.93 138.47 186.91 138.46 186.91 138.46"/><path class="cls-2" d="M187,138.4l8-7.51a11.87,11.87,0,0,0-1.11-1l-6.87,8.53Z"/><polygon points="186.92 138.45 186.94 138.48 186.94 138.48 186.93 138.45 186.93 138.45 186.92 138.45"/><path class="cls-2" d="M197.88,139.76a10.73,10.73,0,0,0,.08-1.28,10.93,10.93,0,0,0-1.43-5.42L187,138.43Z"/><polygon points="186.88 138.38 186.88 138.38 186.88 138.39 186.88 138.39 186.88 138.38"/><path class="cls-2" d="M186.86,138.49l-1.69,10.85a12.66,12.66,0,0,0,1.51.15l.2-11Z"/><polygon points="186.94 138.4 186.95 138.4 186.92 138.41 186.92 138.41 186.94 138.4"/><path class="cls-2" d="M186.83,138.42l-10.74,1.89a12.06,12.06,0,0,0,.34,1.47l10.41-3.34Z"/><path class="cls-2" d="M189.39,149.22A11,11,0,0,0,195,146l-8.07-7.49Z"/><path class="cls-2" d="M177.56,144.23a11.1,11.1,0,0,0,5,4.36l4.27-10.11Z"/><path class="cls-2" d="M186.94,138.46v0l9.66,5.31a10.92,10.92,0,0,0,.63-1.39Z"/><polygon class="cls-3" points="186.94 138.48 186.94 138.48 186.94 138.46 186.93 138.45 186.94 138.48"/><polygon class="cls-3" points="186.88 138.38 186.88 138.35 186.88 138.38 186.88 138.38"/><path class="cls-3" d="M186.88,138.35v0h0l0,0L183.68,128a11.21,11.21,0,0,0-2.44,1.11l5.64,9.3Z"/><polygon class="cls-3" points="186.92 138.41 186.92 138.41 186.92 138.41 186.91 138.41 186.92 138.41"/><polygon class="cls-3" points="186.92 138.42 186.92 138.42 186.93 138.42 186.93 138.42 186.92 138.42"/><polygon class="cls-3" points="186.92 138.45 186.91 138.46 186.93 138.47 186.94 138.48 186.92 138.45"/><polygon class="cls-3" points="186.88 138.42 186.88 138.41 186.87 138.41 186.87 138.42 186.88 138.42"/><path class="cls-3" d="M186.87,138.39h0L180,129.93a11.4,11.4,0,0,0-1.85,1.95l8.67,6.51Z"/><path class="cls-3" d="M186.82,138.41h0l0,0L176,137.62c0,.28,0,.57,0,.86a11,11,0,0,0,.16,1.83l10.74-1.89Z"/><polygon class="cls-3" points="186.84 138.42 186.82 138.41 186.84 138.42 186.84 138.42"/><polygon class="cls-3" points="186.88 138.39 186.88 138.39 186.88 138.4 186.88 138.41 186.88 138.39"/><polygon class="cls-3" points="186.92 138.41 186.95 138.4 186.95 138.4 186.93 138.4 186.92 138.4 186.92 138.41"/><polygon class="cls-3" points="186.9 138.39 186.89 138.39 186.89 138.4 186.9 138.39"/><polygon class="cls-3" points="186.92 138.4 186.92 138.41 186.92 138.41 186.92 138.4"/><polygon class="cls-3" points="186.87 138.39 186.82 138.39 186.85 138.41 186.86 138.41 186.87 138.39"/><polygon class="cls-3" points="186.88 138.41 186.88 138.4 186.87 138.41 186.88 138.41 186.88 138.41"/><polygon class="cls-3" points="186.92 138.41 186.93 138.42 186.93 138.42 186.94 138.4 186.92 138.41"/><path class="cls-3" d="M186.85,138.44h0l-10.41,3.34a10.9,10.9,0,0,0,1.13,2.45l9.27-5.75Z"/><polygon class="cls-3" points="186.88 138.43 186.88 138.43 186.87 138.43 186.87 138.44 186.87 138.44 186.88 138.43"/><polygon class="cls-3" points="186.91 138.42 186.92 138.42 186.93 138.42 186.92 138.41 186.91 138.41 186.91 138.42"/><polygon class="cls-3" points="186.88 138.43 186.88 138.43 186.88 138.43 186.88 138.43"/><polygon class="cls-3" points="186.88 138.39 186.88 138.38 186.88 138.37 186.87 138.39 186.87 138.39 186.88 138.39"/><polygon class="cls-3" points="186.85 138.42 186.85 138.43 186.86 138.43 186.87 138.43 186.85 138.42"/><path class="cls-3" d="M186.85,138.49v0l0,0-4.27,10.11a11,11,0,0,0,2.61.75l1.69-10.85Z"/><polygon class="cls-3" points="186.87 138.47 186.85 138.49 186.86 138.48 186.87 138.47"/><polygon class="cls-3" points="186.88 138.35 186.88 138.37 186.88 138.38 186.88 138.35"/><polygon class="cls-3" points="186.87 138.39 186.87 138.39 186.87 138.39 186.87 138.39"/><polygon class="cls-3" points="186.87 138.41 186.86 138.41 186.87 138.42 186.87 138.41"/><polygon class="cls-3" points="186.87 138.39 186.88 138.4 186.88 138.39 186.87 138.39"/><polygon class="cls-3" points="186.86 138.41 186.87 138.41 186.88 138.4 186.87 138.39 186.87 138.39 186.86 138.41 186.86 138.41"/><polygon class="cls-3" points="186.85 138.44 186.83 138.48 186.87 138.46 186.87 138.46 186.85 138.44"/><polygon class="cls-3" points="186.87 138.43 186.86 138.43 186.87 138.44 186.87 138.43 186.87 138.43"/><path class="cls-3" d="M186.88,138.47h0l-.2,11h.26a11,11,0,0,0,2.45-.28l-2.47-10.72Z"/><polygon class="cls-3" points="186.91 138.46 186.91 138.46 186.91 138.46 186.91 138.46"/><polygon class="cls-3" points="186.89 138.41 186.89 138.41 186.89 138.41 186.89 138.41"/><polygon class="cls-3" points="186.89 138.44 186.88 138.45 186.89 138.45 186.9 138.45 186.89 138.44"/><polygon class="cls-3" points="186.89 138.39 186.88 138.38 186.88 138.39 186.89 138.39"/><polygon class="cls-3" points="186.89 138.39 186.89 138.39 186.88 138.35 186.88 138.38 186.89 138.39"/><polygon class="cls-3" points="186.89 138.41 186.89 138.41 186.88 138.41 186.88 138.42 186.88 138.42 186.89 138.41"/><polygon class="cls-3" points="186.89 138.44 186.89 138.44 186.89 138.44 186.9 138.45 186.9 138.44 186.89 138.44"/><polygon class="cls-3" points="186.88 138.41 186.89 138.41 186.89 138.41 186.89 138.4 186.89 138.39 186.88 138.39 186.88 138.41"/><polygon class="cls-3" points="186.89 138.4 186.89 138.4 186.89 138.39 186.89 138.39 186.89 138.4"/><polygon class="cls-3" points="186.88 138.41 186.88 138.41 186.89 138.41 186.88 138.41"/><polygon class="cls-3" points="186.89 138.44 186.89 138.44 186.89 138.44 186.89 138.44"/><polygon class="cls-3" points="186.94 138.48 186.94 138.48 186.94 138.48 186.94 138.48"/><polygon class="cls-3" points="186.87 138.46 186.88 138.47 186.88 138.46 186.88 138.45 186.87 138.46"/><path class="cls-3" d="M186.94,138.48h0v0L195,146a11.2,11.2,0,0,0,1.61-2.2l-9.66-5.31Z"/><polygon class="cls-3" points="186.85 138.43 186.84 138.42 186.83 138.42 186.84 138.44 186.85 138.43 186.85 138.43"/><polygon class="cls-3" points="186.94 138.48 186.94 138.48 186.94 138.48 186.94 138.48"/><polygon class="cls-3" points="186.93 138.47 186.94 138.48 186.94 138.48 186.93 138.47"/><polygon class="cls-3" points="186.82 138.41 186.83 138.42 186.84 138.42 186.82 138.41"/><polygon class="cls-3" points="186.87 138.44 186.87 138.45 186.87 138.44 186.87 138.44"/><polygon class="cls-3" points="186.84 138.44 186.85 138.44 186.85 138.43 186.84 138.44"/><polygon class="cls-3" points="186.85 138.43 186.86 138.43 186.85 138.43 186.85 138.43"/><polygon class="cls-3" points="186.87 138.45 186.87 138.44 186.86 138.43 186.85 138.43 186.85 138.44 186.87 138.46 186.87 138.45"/><polygon class="cls-3" points="186.88 138.47 186.92 138.5 186.91 138.46 186.91 138.46 186.88 138.47"/><polygon class="cls-3" points="186.88 138.45 186.88 138.46 186.89 138.45 186.88 138.45 186.88 138.45"/><polygon class="cls-3" points="186.86 138.42 186.85 138.42 186.84 138.42 186.85 138.42 186.86 138.42"/><polygon class="cls-3" points="186.9 138.43 186.91 138.44 186.91 138.43 186.91 138.43 186.9 138.43"/><polygon class="cls-3" points="186.93 138.45 186.93 138.45 186.93 138.45 186.93 138.45"/><path class="cls-3" d="M186.93,138.45h0l10.29,3.94a11.09,11.09,0,0,0,.65-2.64L187,138.43Z"/><polygon class="cls-3" points="186.91 138.43 186.92 138.42 186.92 138.42 186.91 138.43 186.91 138.43"/><polygon class="cls-3" points="186.93 138.45 186.93 138.45 186.94 138.46 186.93 138.45 186.93 138.45"/><polygon class="cls-3" points="186.9 138.43 186.9 138.44 186.91 138.44 186.9 138.43 186.9 138.43"/><polygon class="cls-3" points="186.88 138.42 186.88 138.42 186.87 138.42 186.87 138.43 186.88 138.42 186.88 138.42"/><polygon class="cls-3" points="186.86 138.42 186.85 138.42 186.86 138.42 186.86 138.42"/><polygon class="cls-3" points="186.85 138.42 186.85 138.41 186.82 138.41 186.84 138.42 186.85 138.42"/><polygon class="cls-3" points="186.86 138.42 186.86 138.41 186.85 138.41 186.85 138.42 186.86 138.42"/><polygon class="cls-3" points="186.87 138.43 186.88 138.43 186.87 138.43 186.87 138.43"/><polygon class="cls-3" points="186.9 138.43 186.9 138.43 186.91 138.43 186.91 138.42 186.9 138.43 186.9 138.43"/><polygon class="cls-3" points="186.91 138.42 186.91 138.43 186.92 138.42 186.91 138.42 186.91 138.42"/><polygon class="cls-3" points="186.88 138.42 186.87 138.43 186.87 138.43 186.88 138.43 186.88 138.43 186.88 138.42"/><polygon class="cls-3" points="186.9 138.43 186.9 138.43 186.9 138.43 186.9 138.43"/><polygon class="cls-3" points="186.86 138.42 186.85 138.42 186.87 138.43 186.87 138.43 186.86 138.42"/><polygon class="cls-3" points="186.87 138.43 186.87 138.43 186.87 138.42 186.86 138.41 186.86 138.42 186.86 138.42 186.87 138.43"/><polygon class="cls-3" points="186.86 138.41 186.86 138.42 186.86 138.41 186.86 138.41"/><polygon class="cls-3" points="186.87 138.43 186.87 138.43 186.87 138.43 186.87 138.43 186.87 138.43"/><polygon class="cls-3" points="186.87 138.43 186.87 138.43 186.87 138.43 186.87 138.43"/><polygon class="cls-3" points="186.9 138.44 186.9 138.44 186.9 138.43 186.89 138.44 186.9 138.44"/><polygon class="cls-3" points="186.88 138.42 186.88 138.42 186.88 138.42 186.88 138.42"/><polygon class="cls-3" points="186.9 138.43 186.9 138.43 186.9 138.43 186.9 138.43"/><polygon class="cls-3" points="186.9 138.43 186.89 138.44 186.89 138.44 186.9 138.43 186.9 138.43 186.9 138.43"/><polygon class="cls-3" points="186.94 138.4 186.96 138.4 186.95 138.4 186.94 138.4"/><path class="cls-3" d="M187,138.4l0,0h0l9.56-5.37a10.76,10.76,0,0,0-1.62-2.17l-8,7.51Z"/><polygon class="cls-3" points="186.91 138.45 186.92 138.45 186.93 138.45 186.91 138.45"/><polygon class="cls-3" points="186.91 138.46 186.91 138.46 186.91 138.46 186.91 138.46"/><polygon class="cls-3" points="186.88 138.47 186.86 138.48 186.86 138.49 186.88 138.47 186.88 138.47 186.88 138.47"/><polygon class="cls-3" points="186.93 138.42 186.93 138.42 186.92 138.42 186.93 138.42"/><polygon class="cls-3" points="186.9 138.44 186.91 138.46 186.91 138.46 186.92 138.45 186.91 138.45 186.9 138.44"/><polygon class="cls-3" points="186.96 138.4 186.95 138.4 186.95 138.4 186.96 138.4"/><polygon class="cls-3" points="186.93 138.42 186.96 138.4 186.94 138.4 186.93 138.42"/><polygon class="cls-3" points="186.85 138.49 186.86 138.49 186.86 138.48 186.85 138.49"/><polygon class="cls-3" points="186.88 138.47 186.88 138.47 186.88 138.47 186.88 138.47"/><polygon class="cls-3" points="186.9 138.45 186.89 138.45 186.91 138.46 186.91 138.46 186.91 138.46 186.9 138.45"/><polygon class="cls-3" points="186.9 138.45 186.91 138.46 186.9 138.44 186.9 138.44 186.9 138.45"/><polygon class="cls-3" points="186.88 138.47 186.88 138.46 186.88 138.47 186.88 138.47"/><polygon class="cls-3" points="186.89 138.45 186.88 138.46 186.88 138.47 186.88 138.47 186.91 138.46 186.89 138.45"/><polygon class="cls-3" points="186.97 138.43 186.93 138.42 186.93 138.45 186.97 138.43"/><polygon class="cls-3" points="186.91 138.44 186.91 138.45 186.93 138.45 186.93 138.45 186.91 138.43 186.91 138.44"/><polygon class="cls-3" points="186.91 138.43 186.93 138.45 186.93 138.45 186.93 138.42 186.92 138.42 186.91 138.43"/><polygon class="cls-3" points="186.9 138.44 186.91 138.45 186.91 138.44 186.9 138.44 186.9 138.44"/><polygon class="cls-3" points="186.9 138.44 186.9 138.44 186.9 138.44 186.9 138.44"/><path class="cls-3" d="M186.92,138.39h0l6.87-8.53a11.33,11.33,0,0,0-2.31-1.41l-4.58,9.9Z"/><polygon class="cls-3" points="186.87 138.46 186.87 138.47 186.87 138.46 186.87 138.46"/><polygon class="cls-3" points="186.9 138.42 186.9 138.42 186.9 138.41 186.9 138.41 186.9 138.42"/><polygon class="cls-3" points="186.91 138.41 186.92 138.41 186.9 138.41 186.9 138.42 186.91 138.41"/><polygon class="cls-3" points="186.91 138.37 186.9 138.39 186.92 138.4 186.91 138.37"/><polygon class="cls-3" points="186.9 138.41 186.9 138.4 186.9 138.41 186.9 138.41"/><polygon class="cls-3" points="186.93 138.4 186.92 138.4 186.92 138.4 186.93 138.4"/><polygon class="cls-3" points="186.9 138.4 186.9 138.41 186.92 138.41 186.92 138.4 186.92 138.4 186.9 138.39 186.89 138.4 186.9 138.4"/><polygon class="cls-3" points="186.91 138.42 186.9 138.42 186.9 138.42 186.9 138.42 186.91 138.42"/><polygon class="cls-3" points="186.88 138.43 186.87 138.44 186.88 138.44 186.88 138.44 186.88 138.43"/><polygon class="cls-3" points="186.91 138.42 186.91 138.41 186.9 138.42 186.91 138.42 186.91 138.42"/><polygon class="cls-3" points="186.88 138.43 186.88 138.43 186.88 138.43 186.88 138.44 186.88 138.43"/><polygon class="cls-3" points="186.87 138.46 186.87 138.46 186.87 138.46 186.85 138.49 186.87 138.47 186.87 138.46"/><polygon class="cls-3" points="186.87 138.46 186.87 138.46 186.87 138.46 186.87 138.46"/><polygon class="cls-3" points="186.88 138.45 186.88 138.45 186.89 138.44 186.89 138.44 186.88 138.45"/><polygon class="cls-3" points="186.89 138.42 186.9 138.42 186.9 138.42 186.9 138.41 186.89 138.41 186.89 138.41 186.89 138.42"/><polygon class="cls-3" points="186.89 138.41 186.88 138.42 186.89 138.42 186.89 138.41"/><polygon class="cls-3" points="186.89 138.44 186.89 138.44 186.89 138.44 186.89 138.44"/><polygon class="cls-3" points="186.9 138.41 186.9 138.4 186.89 138.4 186.89 138.41 186.9 138.41"/><polygon class="cls-3" points="186.89 138.4 186.89 138.4 186.9 138.4 186.89 138.4"/><polygon class="cls-3" points="186.9 138.42 186.9 138.42 186.9 138.42 186.9 138.42"/><polygon class="cls-3" points="186.89 138.44 186.88 138.44 186.88 138.44 186.88 138.45 186.89 138.44"/><polygon class="cls-3" points="186.88 138.43 186.88 138.44 186.89 138.44 186.89 138.44 186.89 138.44 186.88 138.43"/><polygon class="cls-3" points="186.88 138.45 186.88 138.45 186.87 138.46 186.87 138.46 186.87 138.46 186.88 138.45"/><polygon class="cls-3" points="186.88 138.45 186.88 138.44 186.87 138.44 186.87 138.45 186.87 138.46 186.88 138.45"/><polygon class="cls-3" points="186.87 138.46 186.87 138.46 186.87 138.46 186.87 138.46"/><polygon class="cls-3" points="186.87 138.45 186.87 138.46 186.87 138.46 186.87 138.46 186.87 138.45"/><polygon class="cls-3" points="186.88 138.45 186.88 138.45 186.88 138.45 186.88 138.45 186.88 138.45"/><polygon class="cls-3" points="186.88 138.44 186.88 138.45 186.88 138.45 186.88 138.44"/><polygon class="cls-3" points="186.88 138.42 186.88 138.42 186.88 138.42 186.88 138.42"/><polygon class="cls-3" points="186.9 138.42 186.9 138.43 186.91 138.42 186.91 138.42 186.9 138.42"/><polygon class="cls-3" points="186.91 138.42 186.91 138.42 186.91 138.42 186.91 138.42"/><polygon class="cls-3" points="186.88 138.42 186.88 138.43 186.88 138.43 186.88 138.42 186.88 138.42"/><polygon class="cls-3" points="186.9 138.42 186.89 138.42 186.89 138.42 186.9 138.42"/><polygon class="cls-3" points="186.89 138.42 186.89 138.42 186.88 138.42 186.88 138.42 186.88 138.42 186.89 138.42"/><polygon class="cls-3" points="186.9 138.43 186.9 138.43 186.9 138.42 186.9 138.42 186.89 138.42 186.9 138.43"/><polygon class="cls-3" points="186.9 138.43 186.89 138.42 186.88 138.42 186.88 138.43 186.89 138.44 186.9 138.43"/><circle class="cls-3" cx="186.94" cy="138.48" r="2.67"/></g></g></svg>