<svg xmlns="http://www.w3.org/2000/svg" viewBox="0 0 320.97 320.97"><defs><style>.cls-1{fill:#fff;}.cls-2{fill:#333;}.cls-3{fill:#909090;}</style></defs><title>sequioa</title><g id="Layer_2" data-name="Layer 2"><g id="Layer_1-2" data-name="Layer 1"><path class="cls-1" d="M0,0V321H321V0ZM296.8,171.71l-1.42,5.9-12.54,2-15.65.47-2.66-10.67-3.83-6.26-5.45-6.37-7.18-2.55-7.88-.58-11.71.11L221.06,155l-7.65,5.1-5,7.19L204,176.07l-1.74,7-48.79.23-44.4-.46L95,182.91l-3.24-8.81-5.57-11.25-5.68-6.14-6-2-13.68-.23-6.84,1L46,158.1l-6.15,6.72-4,10-.23,4.76-.93,3.13-9.61-3.27.1-4.81.22-3.89-1.89-1.66.44-3.56,1.23-1.67,3.33-2.34v-1.33l.56-5,3.33-6.34L37,145.14l2.23-1.33,9.34-2.34,13.12-2.11,12.56-1.23,13.46-.88,6.44-.89,4-2,5.11-5,10.12-8.67,8.67-6.34,7.45-3.34L140,109.23l20.68-1.45,39.36-.56,31,.67L254.55,109l13.5.2H279l-.4,1.36-4.23,2.78.1.16-50.36-1.27-1.78.11-.44,1.11,1.67,2.56,14.12,16.9L241.1,135l3.44,1.34,8.34.55,23.91.22L286,137l.23.87,2.89,4.78,2,2.56.56,2.45.33,4.56-.67,4.89L290,163.71h2.44l4.34,1.44.67,2Z"/><polygon class="cls-2" points="100.78 139.8 109.23 129.57 117.01 122.9 124.01 117.56 131.35 114.34 137.47 113.23 150.14 111.67 161.15 111.23 154.03 140.14 118.01 141.58 105.78 141.8 100.66 140.91 100.78 139.8"/><polygon class="cls-2" points="163.71 139.91 166.38 111.12 189.84 111 199.96 111.89 204.29 112.56 207.18 116.12 211.85 123.68 213.97 129.57 214.63 132.69 213.97 134.47 206.52 136.69 200.84 138.02 179.16 139.02 163.71 139.91"/><polygon class="cls-2" points="255.88 186.61 252.1 178.72 248.21 174.6 240.98 170.94 233.53 170.16 227.09 171.6 221.41 174.72 216.63 179.83 213.85 185.28 212.63 191.84 213.74 198.62 216.63 205.4 220.53 209.41 227.09 212.85 233.31 213.74 240.18 213.19 246.77 210.85 251.66 206.29 255.1 200.51 256.55 192.17 255.88 186.61"/><polygon class="cls-3" points="237.43 178.83 231.31 179.28 227.31 181.72 223.97 185.39 221.75 189.95 221.86 195.51 223.97 199.73 227.75 203.07 231.98 205.4 237.31 205.74 241.87 203.96 246.32 199.29 248.66 194.84 248.66 189.17 245.65 183.17 241.87 180.05 237.43 178.83"/><polygon class="cls-2" points="234.76 180.28 235.09 186.06 233.65 186.17 233.31 180.61 234.76 180.28"/><polygon class="cls-2" points="237.31 180.61 237.76 186.95 244.1 184.5 240.98 181.83 237.31 180.61"/><polygon class="cls-2" points="230.84 181.29 227.06 183.89 224.56 187.21 231.02 187.66 230.84 181.29"/><polygon class="cls-2" points="229.11 190.3 223.7 189.34 223.38 191.07 229.11 191.07 229.11 190.3"/><polygon class="cls-2" points="229.06 194.39 223.56 193.48 224.97 197.03 227.56 200.03 229.06 194.39"/><polygon class="cls-2" points="231.88 196.8 229.02 201.62 230.43 202.39 232.47 197.44 231.88 196.8"/><polygon class="cls-2" points="235.56 197.89 232.75 202.8 236.75 202.89 239.66 201.53 235.56 197.89"/><polygon class="cls-2" points="239.43 195.89 238.52 196.35 241.79 200.57 243.02 199.21 239.43 195.89"/><polygon class="cls-2" points="240.88 192.84 244.7 197.66 246.48 193.75 246.52 190.16 240.88 192.84"/><polygon class="cls-2" points="240.11 189.21 240.52 189.84 246.02 188.12 245.57 186.12 240.11 189.21"/><polygon class="cls-2" points="85.79 186.61 82.01 178.72 78.12 174.6 70.89 170.94 63.44 170.16 56.99 171.6 51.32 174.72 46.54 179.83 43.76 185.28 42.53 191.84 43.65 198.62 46.54 205.4 50.43 209.41 56.99 212.85 63.22 213.74 70.08 213.19 76.67 210.85 81.56 206.29 85.01 200.51 86.45 192.17 85.79 186.61"/><polygon class="cls-3" points="67.33 178.83 61.22 179.28 57.21 181.72 53.88 185.39 51.65 189.95 51.76 195.51 53.88 199.73 57.66 203.07 61.88 205.4 67.22 205.74 71.78 203.96 76.22 199.29 78.56 194.84 78.56 189.17 75.56 183.17 71.78 180.05 67.33 178.83"/><polygon class="cls-2" points="64.66 180.28 65 186.06 63.55 186.17 63.22 180.61 64.66 180.28"/><polygon class="cls-2" points="67.22 180.61 67.66 186.95 74 184.5 70.89 181.83 67.22 180.61"/><polygon class="cls-2" points="60.74 181.29 56.97 183.89 54.47 187.21 60.92 187.66 60.74 181.29"/><polygon class="cls-2" points="59.01 190.3 53.6 189.34 53.28 191.07 59.01 191.07 59.01 190.3"/><polygon class="cls-2" points="58.97 194.39 53.47 193.48 54.87 197.03 57.47 200.03 58.97 194.39"/><polygon class="cls-2" points="61.79 196.8 58.92 201.62 60.33 202.39 62.38 197.44 61.79 196.8"/><polygon class="cls-2" points="65.47 197.89 62.65 202.8 66.65 202.89 69.56 201.53 65.47 197.89"/><polygon class="cls-2" points="69.33 195.89 68.42 196.35 71.7 200.57 72.93 199.21 69.33 195.89"/><polygon class="cls-2" points="70.79 192.84 74.61 197.66 76.38 193.75 76.43 190.16 70.79 192.84"/><polygon class="cls-2" points="70.02 189.21 70.42 189.84 75.93 188.12 75.47 186.12 70.02 189.21"/><polygon class="cls-2" points="267.19 180.13 264.53 169.46 260.7 163.2 255.25 156.83 248.07 154.28 240.19 153.7 228.48 153.81 221.06 154.97 213.41 160.07 208.43 167.26 204.02 176.07 202.28 183.02 153.49 183.25 109.09 182.79 94.95 182.91 91.71 174.1 86.14 162.85 80.46 156.71 74.44 154.74 60.76 154.51 53.92 155.55 46.04 158.1 39.89 164.82 35.84 174.79 35.6 179.55 34.68 182.68 25.07 179.41 25.06 180.16 26.39 183.61 28.5 185.5 31.73 186.06 35.62 186.84 37.4 187.72 38.62 188.5 39.4 184.39 40.84 176.5 43.18 172.38 45.74 169.27 49.41 165.93 55.19 163.71 60.19 163.26 67.2 163.26 73.31 164.15 78.76 166.82 82.54 170.27 85.54 174.38 87.99 178.83 89.77 183.28 90.44 185.72 90.77 191.62 95.33 193.4 117.9 193.17 137.91 193.28 173.16 193.17 200.29 193.62 203.74 193.62 205.51 193.84 209.63 182.94 213.19 173.83 215.85 169.6 219.08 165.93 223.31 163.71 228.75 162.49 237.54 162.26 244.21 162.82 250.1 163.93 253.99 166.15 256.77 170.49 259.33 176.72 260 179.61 261.89 187.06 267.56 185.61 273.56 184.28 280.79 183.39 286.01 183.06 291.13 182.5 293.35 181.72 294.69 180.72 295.36 177.72 295.38 177.61 282.84 179.66 267.19 180.13"/><polygon class="cls-2" points="222.3 112.34 221.86 113.45 223.53 116.01 237.65 132.91 241.09 135.02 244.54 136.36 252.88 136.91 276.79 137.13 286.01 137.04 285.35 134.47 281.57 125.57 278.34 119.45 275.68 115.56 274.44 113.5 224.08 112.23 222.3 112.34"/></g></g></svg>