<svg xmlns="http://www.w3.org/2000/svg" viewBox="0 0 138.48 153.59"><defs><style>.cls-1{fill:#fff;}</style></defs><title>manager_female</title><g id="Layer_2" data-name="Layer 2"><g id="Layer_1-2" data-name="Layer 1"><path d="M65.05,0h5.52c1.62.22,3.25.37,4.85.67A40.29,40.29,0,0,1,99.23,14.16a26.8,26.8,0,0,1,5,8.27,84.6,84.6,0,0,1,4.68,25.48,234.77,234.77,0,0,1-.74,27.56c-.52,7.22-.84,14.45-1.27,21.67-.06,1,.24,1.43,1.31,1.67,4.23,1,8.51,1.89,12.63,3.23,5.85,1.91,10.08,5.76,11.64,11.87a130,130,0,0,1,2.62,13.26c1.16,7.71,2.08,15.44,3.09,23.17.14,1,.22,2.11.33,3.25H0c.55-3.9,1.09-7.69,1.62-11.48.84-6.05,1.81-12.1,2.45-18.17A30.51,30.51,0,0,1,9,110c2.33-3.49,5.22-6.21,9.52-7.13,3.16-.67,6.28-1.51,9.44-2.23.77-.17,1.19-.4,1.16-1.3C29,95.19,29,91.06,28.73,87,28,77.56,27,68.18,26.37,58.77c-.76-11.23-.19-22.37,3.22-33.22C31,21,32.68,16.64,36.17,13.21c.85-.84,1.67-1.71,2.5-2.56a42,42,0,0,1,3.7-3.73C47,3.26,52.47,1.71,58.17.79,60.45.43,62.76.26,65.05,0ZM35.26,44a10,10,0,0,0-.5,1.09c-1.67,4.63.85,12.72,4.91,15.91a2.23,2.23,0,0,1,.84,1.3A18.5,18.5,0,0,0,42.59,69a53.28,53.28,0,0,0,9.86,13A30.86,30.86,0,0,0,65.15,90a4.38,4.38,0,0,0,2.34.18c5.38-1.6,10.57-3.68,15-7.19,3.83-3,6.75-6.9,9.53-10.85,2.37-3.36,4.25-6.95,4.7-11.13a1.28,1.28,0,0,1,.28-.64,22.37,22.37,0,0,0,4.12-8.17c.87-2.74,1.61-5.53,1.16-8.47-.36-2.3-1.57-3.16-3.85-2.75a2.38,2.38,0,0,1-1.27,0c-2.17-.9-4.3-1.88-6.46-2.81-3.83-1.65-7.53-3.51-10.39-6.68-.49-.55-1-1.14-1.38-1.65-1.73,1.48-3.32,2.92-5,4.26C68,38.78,62,43.31,54.2,44.49c-4.2.63-8.36,1.47-12.61.85C39.51,45,37.47,44.5,35.26,44ZM56.31,88.37c-.3,2-.62,3.76-.82,5.58a1.71,1.71,0,0,0,.56,1.19c2.67,2.69,5.38,5.35,8.08,8l4.31,4.2a1.55,1.55,0,0,0,.34-.16Q74.88,101,81,94.81c.21-.21.45-.57.4-.8-.4-1.94-.87-3.86-1.34-5.9l-1.57.69c-2.13.89-4.29,1.74-6.4,2.67a11.9,11.9,0,0,1-11.66-.75C59.1,89.94,57.78,89.21,56.31,88.37Z"/><path class="cls-1" d="M35.26,44c2.21.46,4.25,1,6.33,1.3,4.25.62,8.41-.22,12.61-.85C62,43.31,68,38.78,74,34.06c1.69-1.34,3.28-2.78,5-4.26.43.51.89,1.1,1.38,1.65,2.86,3.17,6.56,5,10.39,6.68,2.16.93,4.29,1.91,6.46,2.81a2.38,2.38,0,0,0,1.27,0c2.28-.41,3.49.45,3.85,2.75.45,2.94-.29,5.73-1.16,8.47A22.37,22.37,0,0,1,97,60.33a1.28,1.28,0,0,0-.28.64c-.45,4.18-2.33,7.77-4.7,11.13-2.78,4-5.7,7.83-9.53,10.85-4.46,3.51-9.65,5.59-15,7.19A4.38,4.38,0,0,1,65.15,90a30.86,30.86,0,0,1-12.7-7.88,53.28,53.28,0,0,1-9.86-13,18.5,18.5,0,0,1-2.08-6.7,2.23,2.23,0,0,0-.84-1.3c-4.06-3.19-6.58-11.28-4.91-15.91A10,10,0,0,1,35.26,44Z"/><path class="cls-1" d="M56.31,88.37c1.47.84,2.79,1.57,4.08,2.35a11.9,11.9,0,0,0,11.66.75c2.11-.93,4.27-1.78,6.4-2.67L80,88.11c.47,2,.94,4,1.34,5.9,0,.23-.19.59-.4.8Q74.88,101,68.78,107.2a1.55,1.55,0,0,1-.34.16l-4.31-4.2c-2.7-2.67-5.41-5.33-8.08-8A1.71,1.71,0,0,1,55.49,94C55.69,92.13,56,90.33,56.31,88.37Z"/></g></g></svg>